# xmcd
#
# Track frame offsets:
#	150
#	21197
#	45930
#	64517
#
# Disc length: 1131 seconds
#
# Revision: 9
# Processed by: cddbd v1.5.2PL0 Copyright (c) Steve Scherf et al.
# Submitted via: EasyCDDAExtractor 12.0.7.1
#
DISCID=25046904
DTITLE=silly fools - Miss Sarajevo
DYEAR=1995
DGENRE=Pop
TTITLE0=ว่างเปล่า
TTITLE1=รอยยิ้ม (ภาคทฤษฎี)
TTITLE2=จิบเดียว...ก็ซึ้งแมน
TTITLE3=รอยยิ้ม (ภาคปฏิบัติ)
EXTD=
EXTT0=
EXTT1=
EXTT2=
EXTT3=
PLAYORDER=
